<?xml version="1.0" encoding="utf-8"?>
<!-- Generator: Adobe Illustrator 16.0.3, SVG Export Plug-In . SVG Version: 6.00 Build 0)  -->
<!DOCTYPE svg PUBLIC "-//W3C//DTD SVG 1.1//EN" "http://www.w3.org/Graphics/SVG/1.1/DTD/svg11.dtd">
<svg version="1.1" id="Layer_1" xmlns="http://www.w3.org/2000/svg" xmlns:xlink="http://www.w3.org/1999/xlink" x="0px" y="0px"
	 width="160.929px" height="77.81px" viewBox="0 0 160.929 77.81" enable-background="new 0 0 160.929 77.81" xml:space="preserve">
<g>
	<path fill-rule="evenodd" clip-rule="evenodd" fill="#0066B3" d="M115.823,32.623H89.417v4.816h18.988v7.197H89.639v5.646h22.697
		v9.799H77.459V22.215h43.126l19.818,21.757V22.215h12.18v37.866h-12.622L115.823,32.623z M116.045,35.003l12.18,13.508v11.57
		h-12.18V35.003z M0.121,22.215h61.837c0,0,12.899,0.609,12.899,12.124c0,15.5-17.882,13.342-17.882,13.342l16.11,12.4H38.873
		V37.661h20.262c1.993,0,3.267-1.771,3.267-3.322c0-1.494-1.938-2.602-3.71-2.602H12.633v5.591h17.105v6.976H12.633v5.924h20.926
		v9.854H0.121V22.215z M156.529,17.958h0.753c0.479,0,0.87-0.059,0.87-0.606c0-0.479-0.46-0.557-0.86-0.557h-0.763V17.958z
		 M157.233,21.937c-1.966,0-3.696-1.457-3.696-3.618c0-2.16,1.73-3.617,3.696-3.617c1.965,0,3.695,1.457,3.695,3.617
		C160.929,20.48,159.198,21.937,157.233,21.937z M154.417,18.319c0,1.691,1.242,2.914,2.816,2.914c1.555,0,2.815-1.223,2.815-2.914
		s-1.261-2.913-2.815-2.913C155.659,15.406,154.417,16.628,154.417,18.319z M156.529,18.544v1.76h-0.714v-4.096h1.545
		c0.997,0,1.545,0.342,1.545,1.202c0,0.743-0.46,1.036-1.096,1.105l1.125,1.789h-0.782l-1.026-1.76H156.529z"/>
	<path fill-rule="evenodd" clip-rule="evenodd" fill="#0066B3" d="M57.222,8.078c0.681,0,1.873,0.534,2.452,1.068
		c0.579,0.534,1.227,1.369,1.328,1.502c0.068,0.1,0.409,0.701,0.409,1.702s-0.341,2.07-1.261,3.138
		c-0.953,1.068-2.077,1.569-2.827,1.936c-0.715,0.4-1.396,0.734-2.86,0.734c-1.499,0-3.065-0.667-3.815-1.335
		c-0.783-0.701-1.192-1.335-1.192-1.903s0.034-1.769,0.954-2.971c0.749-1.068,1.261-1.936,1.431-2.169
		c0.17-0.2,1.566-0.835,2.963-1.168S56.506,8.078,57.222,8.078z M55.995,9.379c-0.579,0-3.065,0.801-3.78,2.169
		c-0.682,1.369-1.09,2.17-1.09,3.004c0,0.868,0.511,1.235,1.294,1.602c0.783,0.4,2.01,0.634,2.486,0.634
		c0.511,0,2.725-0.634,3.61-2.103c0.852-1.502,1.021-1.869,1.021-2.47c0-0.634-0.374-1.235-1.43-2.103
		C57.051,9.213,56.608,9.379,55.995,9.379z M18.494,16.623c0,0,0.068,0.534,0.137,0.734c0.068,0.167,0.204,0.267,0.204,0.267
		s2.827,0.4,5.654,0.4s8.583-0.667,13.862-3.338c5.246-2.637,8.243-4.439,10.082-5.307c1.84-0.901,5.416-3.004,8.754-3.004
		s4.325,0.802,4.325,0.802l0.92-1.002c0,0-2.555-1.001-3.985-1.001c-1.396,0-4.938,0.467-6.505,1.135
		c-1.396,0.601-6.915,3.338-9.23,4.673c-2.282,1.335-9.163,4.439-14.067,5.341c-4.904,0.935-6.301,0.668-7.834,0.501
		C19.244,16.623,18.494,16.623,18.494,16.623z M0.817,12.717c0.272,0,0.272-0.667,0.374-1.268c0.137-0.601,0.545-1.302,1.295-2.37
		c0.749-1.068,1.498-0.801,1.498-0.801l9.674-0.568c6.607-0.434,17.438-1.135,17.438-1.135l1.737,1.602
		c0.852,0.768,2.418,1.97,2.418,1.97s0.068,0.066,0.613-0.468s0.272-0.834,0.272-0.834s-0.612,0.1-1.839-0.734
		c-1.192-0.868-1.431-1.636-1.431-1.636s0.238-0.101,4.325-0.301c4.122-0.2,13.284-0.768,13.999-0.834
		c0.75-0.067,2.112,0.1,2.112-0.601c0-0.734-0.613-0.401-0.613-0.401s-1.976,0.067-7.289,0.601
		c-5.313,0.534-13.624,0.868-13.624,0.868s-2.18-3.638-2.589-4.306C28.814,0.834,29.326,0,26.295,0
		c-3.645,0-9.946,1.168-13.591,2.236c-3.61,1.068-7.936,3.171-9.673,4.072S1.124,8.178,0.579,9.546C0.034,10.948,0,12.517,0,12.517
		S0.545,12.717,0.817,12.717z M10.252,9.146c1.601,0,1.805,0.435,2.521,0.935c0.749,0.501,2.623,1.302,2.623,2.704
		c0,1.369-0.341,6.275-6.677,6.275c-5.347,0-6.097-3.872-6.097-4.64c0-3.639,5.45-5.141,5.45-5.141S8.617,9.146,10.252,9.146z
		 M13.794,14.02c0,1.802-2.554,4.039-4.904,4.039c-1.09,0-4.258-0.667-4.258-3.372c0-1.902,0.954-4.473,4.938-4.473
		C13.556,10.214,13.794,13.318,13.794,14.02z M5.381,7.177c0,0,4.122-2.504,9.436-4.039c5.313-1.502,9.979-1.736,11.035-1.736
		s1.26-0.067,1.806,0.333c0.545,0.401,1.976,1.77,2.588,2.837c0.478,0.801,0.647,1.235,0.034,1.302S18.052,6.576,14.066,6.776
		C10.082,6.976,5.381,7.177,5.381,7.177z"/>
	<g>
		<path fill-rule="evenodd" clip-rule="evenodd" fill="#0066B3" d="M7.632,77.81c3.714,0,6.156-1.09,6.156-4.223
			c0-1.518-0.834-2.822-2.383-3.211c0.913-0.564,1.866-1.615,1.866-3.055c0-2.783-2.562-3.523-5.778-3.523H0.662V77.81H7.632z
			 M6.996,67.068c0.993,0,1.906,0.02,1.906,1.109c0,0.818-0.675,1.227-1.607,1.227H5.349v-2.336H6.996z M6.838,71.953
			c1.489,0,2.581,0.078,2.581,1.305c0,1.051-0.874,1.283-2.025,1.283H5.349v-2.588H6.838z"/>
		<path fill-rule="evenodd" clip-rule="evenodd" fill="#0066B3" d="M32.375,77.81l0.536-1.848h4.667l0.556,1.848h4.667
			l-5.123-14.012h-4.767L27.788,77.81H32.375z M36.764,73.042h-2.959l1.45-5.021L36.764,73.042z"/>
		<polygon fill-rule="evenodd" clip-rule="evenodd" fill="#0066B3" points="68.537,77.81 68.537,74.541 62.103,74.541 
			62.103,63.798 57.416,63.798 57.416,77.81 		"/>
		<path fill-rule="evenodd" clip-rule="evenodd" fill="#0066B3" d="M86.85,77.81l0.536-1.848h4.666l0.557,1.848h4.666l-5.123-14.012
			h-4.766L82.262,77.81H86.85z M91.238,73.042h-2.959l1.449-5.021L91.238,73.042z"/>
		<polygon fill-rule="evenodd" clip-rule="evenodd" fill="#0066B3" points="110.997,67.476 115.207,67.476 115.207,77.81 
			119.894,77.81 119.894,67.476 124.104,67.476 124.104,63.798 110.997,63.798 		"/>
		<path fill-rule="evenodd" clip-rule="evenodd" fill="#0066B3" d="M142.412,77.81l0.536-1.848h4.667l0.556,1.848h4.667
			l-5.123-14.012h-4.767l-5.123,14.012H142.412z M146.801,73.042h-2.959l1.45-5.021L146.801,73.042z"/>
	</g>
</g>
</svg>
